<svg xmlns="http://www.w3.org/2000/svg" version="1.1" xmlns:xlink="http://www.w3.org/1999/xlink" xmlns:svgjs="http://svgjs.dev/svgjs" width="1920" height="1080" preserveAspectRatio="none" viewBox="0 0 1920 1080"><g mask="url(&quot;#SvgjsMask1092&quot;)" fill="none"><rect width="1920" height="1080" x="0" y="0" fill="rgba(193, 212, 231, 1)"></rect><path d="M0,613.144C122.5,612.83,255.292,623.534,354.856,552.167C453.174,481.693,475.838,350.223,522.498,238.617C567.551,130.856,628.635,27.075,623.163,-89.597C617.408,-212.308,585.337,-346.656,491.34,-425.749C399.415,-503.099,255.578,-446.411,144.558,-492.32C12.73,-546.833,-71.222,-748.066,-210.191,-715.845C-346.161,-684.319,-336.84,-475.711,-417.715,-361.952C-487.965,-263.138,-614.955,-209.111,-652.42,-93.804C-692.541,29.677,-682.612,169.005,-628.593,287.069C-574.591,405.095,-471.242,494.222,-356.027,553.988C-247.03,610.529,-122.789,613.459,0,613.144" fill="#568abe"></path><path d="M1920 1999.7269999999999C2089.49 1995.067 2197.49 1819.767 2320.2690000000002 1702.8310000000001 2421.605 1606.318 2511.0119999999997 1503.69 2572.709 1378.0819999999999 2635.886 1249.461 2697.5119999999997 1112.956 2679.857 970.749 2662.058 827.381 2552.215 720.977 2475.901 598.309 2383.786 450.24199999999996 2356.919 207.66999999999996 2185.436 176.00800000000004 2007.906 143.22900000000004 1910.109 405.847 1738.59 462.174 1576.057 515.55 1367.806 378.11699999999996 1236.411 487.66700000000003 1108.316 594.466 1144.652 800.496 1133.241 966.881 1122.62 1121.738 1103.998 1282.08 1172.371 1421.431 1239.92 1559.1019999999999 1384.034 1631.411 1505.3319999999999 1725.2359999999999 1639.158 1828.751 1750.875 2004.377 1920 1999.7269999999999" fill="#ffffff"></path></g><defs><mask id="SvgjsMask1092"><rect width="1920" height="1080" fill="#ffffff"></rect></mask></defs></svg>