<svg xmlns="http://www.w3.org/2000/svg" version="1.1" xmlns:xlink="http://www.w3.org/1999/xlink" xmlns:svgjs="http://svgjs.dev/svgjs" width="1980" height="1080" preserveAspectRatio="none" viewBox="0 0 1980 1080"><g mask="url(&quot;#SvgjsMask1008&quot;)" fill="none"><rect width="1980" height="1080" x="0" y="0" fill="#0e2a47"></rect><path d="M 0,316 C 79.2,300.6 237.6,207.8 396,239 C 554.4,270.2 633.6,470 792,472 C 950.4,474 1029.6,276.6 1188,249 C 1346.4,221.4 1425.6,345.2 1584,334 C 1742.4,322.8 1900.8,221.2 1980,193L1980 1080L0 1080z" fill="#184a7e"></path><path d="M 0,551 C 132,648 396,1028.6 660,1036 C 924,1043.4 1056,595 1320,588 C 1584,581 1848,918.4 1980,1001L1980 1080L0 1080z" fill="#2264ab"></path></g><defs><mask id="SvgjsMask1008"><rect width="1980" height="1080" fill="#ffffff"></rect></mask></defs></svg>